<!DOCTYPE svg PUBLIC "-//W3C//DTD SVG 1.1//EN" "http://www.w3.org/Graphics/SVG/1.1/DTD/svg11.dtd">
<!-- Uploaded to: SVG Repo, www.svgrepo.com, Transformed by: SVG Repo Mixer Tools -->
<svg fill="#ffffff" width="800px" height="800px" viewBox="0 0 1000 1000" xmlns="http://www.w3.org/2000/svg" stroke="#ffffff">
<g id="SVGRepo_bgCarrier" stroke-width="0"/>
<g id="SVGRepo_tracerCarrier" stroke-linecap="round" stroke-linejoin="round"/>
<g id="SVGRepo_iconCarrier">
<path d="M342 218q99 56 396 215l16 9q17 12 28 24 15 17 15 32 0 21-29 46-15 12-30 19l-161 87q-173 93-235 128-44 25-81 17-26-6-47-28-10-11-15-20V249l6-8q7-11 16-19 13-11 28-17 19-7 40-5 25 3 53 18z"/>
</g>
</svg>